<mxfile host="app.diagrams.net" modified="2023-12-12T10:21:50.891Z" agent="Mozilla/5.0 (Windows NT 10.0; Win64; x64) AppleWebKit/537.36 (KHTML, like Gecko) Chrome/120.0.0.0 Safari/537.36 Edg/120.0.0.0" etag="SoN4smUXwALcj2JOR8Rw" version="22.1.7" type="github">
  <diagram name="第 1 页" id="u-yVW4R7YpjYFJ1wXz5T">
    <mxGraphModel dx="1113" dy="782" grid="1" gridSize="10" guides="1" tooltips="1" connect="1" arrows="1" fold="1" page="1" pageScale="1" pageWidth="827" pageHeight="1169" math="0" shadow="0">
      <root>
        <mxCell id="0" />
        <mxCell id="1" parent="0" />
        <mxCell id="7IYAB5vf2lBV86GcsKY7-3" value="ATU" style="rounded=0;whiteSpace=wrap;html=1;verticalAlign=top;align=left;" vertex="1" parent="1">
          <mxGeometry x="480" y="133" width="370" height="150" as="geometry" />
        </mxCell>
        <mxCell id="7IYAB5vf2lBV86GcsKY7-18" style="edgeStyle=orthogonalEdgeStyle;rounded=0;orthogonalLoop=1;jettySize=auto;html=1;exitX=1;exitY=0.5;exitDx=0;exitDy=0;entryX=0;entryY=0.75;entryDx=0;entryDy=0;" edge="1" parent="1" source="7IYAB5vf2lBV86GcsKY7-9" target="7IYAB5vf2lBV86GcsKY7-3">
          <mxGeometry relative="1" as="geometry" />
        </mxCell>
        <mxCell id="7IYAB5vf2lBV86GcsKY7-22" value="GPUVA" style="edgeLabel;html=1;align=center;verticalAlign=middle;resizable=0;points=[];" vertex="1" connectable="0" parent="7IYAB5vf2lBV86GcsKY7-18">
          <mxGeometry x="-0.1489" relative="1" as="geometry">
            <mxPoint as="offset" />
          </mxGeometry>
        </mxCell>
        <mxCell id="7IYAB5vf2lBV86GcsKY7-9" value="HAG" style="rounded=0;whiteSpace=wrap;html=1;" vertex="1" parent="1">
          <mxGeometry x="350" y="215" width="70" height="60" as="geometry" />
        </mxCell>
        <mxCell id="7IYAB5vf2lBV86GcsKY7-12" style="edgeStyle=orthogonalEdgeStyle;rounded=0;orthogonalLoop=1;jettySize=auto;html=1;exitX=1;exitY=0.5;exitDx=0;exitDy=0;" edge="1" parent="1" source="7IYAB5vf2lBV86GcsKY7-11" target="7IYAB5vf2lBV86GcsKY7-9">
          <mxGeometry relative="1" as="geometry" />
        </mxCell>
        <mxCell id="7IYAB5vf2lBV86GcsKY7-11" value="PHUB" style="rounded=0;whiteSpace=wrap;html=1;" vertex="1" parent="1">
          <mxGeometry x="250" y="215" width="70" height="60" as="geometry" />
        </mxCell>
        <mxCell id="7IYAB5vf2lBV86GcsKY7-14" value="" style="edgeStyle=orthogonalEdgeStyle;rounded=0;orthogonalLoop=1;jettySize=auto;html=1;" edge="1" parent="1" source="7IYAB5vf2lBV86GcsKY7-13" target="7IYAB5vf2lBV86GcsKY7-11">
          <mxGeometry relative="1" as="geometry" />
        </mxCell>
        <mxCell id="7IYAB5vf2lBV86GcsKY7-13" value="BAR0" style="rounded=0;whiteSpace=wrap;html=1;" vertex="1" parent="1">
          <mxGeometry x="150" y="215" width="70" height="60" as="geometry" />
        </mxCell>
        <mxCell id="7IYAB5vf2lBV86GcsKY7-16" value="" style="edgeStyle=orthogonalEdgeStyle;rounded=0;orthogonalLoop=1;jettySize=auto;html=1;" edge="1" parent="1" source="7IYAB5vf2lBV86GcsKY7-15" target="7IYAB5vf2lBV86GcsKY7-13">
          <mxGeometry relative="1" as="geometry" />
        </mxCell>
        <mxCell id="7IYAB5vf2lBV86GcsKY7-15" value="CPU" style="rounded=0;whiteSpace=wrap;html=1;" vertex="1" parent="1">
          <mxGeometry x="50" y="215" width="70" height="60" as="geometry" />
        </mxCell>
        <mxCell id="7IYAB5vf2lBV86GcsKY7-20" style="edgeStyle=orthogonalEdgeStyle;rounded=0;orthogonalLoop=1;jettySize=auto;html=1;exitX=1;exitY=0.5;exitDx=0;exitDy=0;entryX=0;entryY=0.25;entryDx=0;entryDy=0;" edge="1" parent="1" source="7IYAB5vf2lBV86GcsKY7-19" target="7IYAB5vf2lBV86GcsKY7-3">
          <mxGeometry relative="1" as="geometry" />
        </mxCell>
        <mxCell id="7IYAB5vf2lBV86GcsKY7-21" value="GPUVA" style="edgeLabel;html=1;align=center;verticalAlign=middle;resizable=0;points=[];" vertex="1" connectable="0" parent="7IYAB5vf2lBV86GcsKY7-20">
          <mxGeometry x="-0.1773" y="1" relative="1" as="geometry">
            <mxPoint as="offset" />
          </mxGeometry>
        </mxCell>
        <mxCell id="7IYAB5vf2lBV86GcsKY7-19" value="卡内部IP" style="rounded=0;whiteSpace=wrap;html=1;" vertex="1" parent="1">
          <mxGeometry x="350" y="140" width="70" height="60" as="geometry" />
        </mxCell>
        <mxCell id="7IYAB5vf2lBV86GcsKY7-23" value="" style="rounded=0;whiteSpace=wrap;html=1;" vertex="1" parent="1">
          <mxGeometry x="550" y="155" width="50" height="105" as="geometry" />
        </mxCell>
        <mxCell id="7IYAB5vf2lBV86GcsKY7-24" value="XPID0 VA空间" style="text;html=1;strokeColor=none;fillColor=none;align=center;verticalAlign=middle;whiteSpace=wrap;rounded=0;" vertex="1" parent="1">
          <mxGeometry x="535" y="253" width="80" height="30" as="geometry" />
        </mxCell>
        <mxCell id="7IYAB5vf2lBV86GcsKY7-25" value="unmap aper0" style="rounded=0;whiteSpace=wrap;html=1;fillColor=#dae8fc;strokeColor=#6c8ebf;" vertex="1" parent="1">
          <mxGeometry x="550" y="187" width="50" height="42" as="geometry" />
        </mxCell>
        <mxCell id="7IYAB5vf2lBV86GcsKY7-27" value="" style="curved=1;endArrow=classic;html=1;rounded=0;exitX=0;exitY=0.75;exitDx=0;exitDy=0;entryX=0;entryY=1;entryDx=0;entryDy=0;" edge="1" parent="1" source="7IYAB5vf2lBV86GcsKY7-3" target="7IYAB5vf2lBV86GcsKY7-25">
          <mxGeometry width="50" height="50" relative="1" as="geometry">
            <mxPoint x="530" y="280" as="sourcePoint" />
            <mxPoint x="550" y="230" as="targetPoint" />
            <Array as="points">
              <mxPoint x="510" y="250" />
              <mxPoint x="530" y="230" />
            </Array>
          </mxGeometry>
        </mxCell>
        <mxCell id="7IYAB5vf2lBV86GcsKY7-30" value="" style="curved=1;endArrow=classic;html=1;rounded=0;exitX=0;exitY=0.25;exitDx=0;exitDy=0;entryX=0;entryY=0;entryDx=0;entryDy=0;" edge="1" parent="1" source="7IYAB5vf2lBV86GcsKY7-3" target="7IYAB5vf2lBV86GcsKY7-25">
          <mxGeometry width="50" height="50" relative="1" as="geometry">
            <mxPoint x="530" y="240" as="sourcePoint" />
            <mxPoint x="580" y="190" as="targetPoint" />
            <Array as="points">
              <mxPoint x="510" y="170" />
              <mxPoint x="530" y="180" />
            </Array>
          </mxGeometry>
        </mxCell>
        <mxCell id="7IYAB5vf2lBV86GcsKY7-33" value="" style="rounded=0;whiteSpace=wrap;html=1;" vertex="1" parent="1">
          <mxGeometry x="680" y="155" width="50" height="105" as="geometry" />
        </mxCell>
        <mxCell id="7IYAB5vf2lBV86GcsKY7-34" value="GPA空间" style="text;html=1;strokeColor=none;fillColor=none;align=center;verticalAlign=middle;whiteSpace=wrap;rounded=0;" vertex="1" parent="1">
          <mxGeometry x="660" y="253" width="95" height="30" as="geometry" />
        </mxCell>
        <mxCell id="7IYAB5vf2lBV86GcsKY7-35" value="" style="rounded=0;whiteSpace=wrap;html=1;fillColor=#dae8fc;strokeColor=#6c8ebf;" vertex="1" parent="1">
          <mxGeometry x="680" y="165.75" width="50" height="42.5" as="geometry" />
        </mxCell>
        <mxCell id="7IYAB5vf2lBV86GcsKY7-36" value="" style="endArrow=classic;html=1;rounded=0;entryX=0;entryY=0;entryDx=0;entryDy=0;exitX=1;exitY=0;exitDx=0;exitDy=0;" edge="1" parent="1" source="7IYAB5vf2lBV86GcsKY7-25" target="7IYAB5vf2lBV86GcsKY7-35">
          <mxGeometry width="50" height="50" relative="1" as="geometry">
            <mxPoint x="620" y="187" as="sourcePoint" />
            <mxPoint x="670" y="180" as="targetPoint" />
          </mxGeometry>
        </mxCell>
        <mxCell id="7IYAB5vf2lBV86GcsKY7-38" value="" style="endArrow=classic;html=1;rounded=0;entryX=0;entryY=1;entryDx=0;entryDy=0;exitX=1;exitY=1;exitDx=0;exitDy=0;" edge="1" parent="1" source="7IYAB5vf2lBV86GcsKY7-25" target="7IYAB5vf2lBV86GcsKY7-35">
          <mxGeometry width="50" height="50" relative="1" as="geometry">
            <mxPoint x="620" y="230" as="sourcePoint" />
            <mxPoint x="670" y="180" as="targetPoint" />
          </mxGeometry>
        </mxCell>
        <mxCell id="7IYAB5vf2lBV86GcsKY7-39" value="" style="shape=curlyBracket;whiteSpace=wrap;html=1;rounded=1;labelPosition=left;verticalLabelPosition=middle;align=right;verticalAlign=middle;" vertex="1" parent="1">
          <mxGeometry x="660" y="208.25" width="20" height="51.75" as="geometry" />
        </mxCell>
        <mxCell id="7IYAB5vf2lBV86GcsKY7-40" value="&lt;font style=&quot;font-size: 11px;&quot;&gt;aper0_off&lt;/font&gt;" style="text;html=1;strokeColor=none;fillColor=none;align=center;verticalAlign=middle;whiteSpace=wrap;rounded=0;" vertex="1" parent="1">
          <mxGeometry x="610" y="219.13" width="60" height="30" as="geometry" />
        </mxCell>
        <mxCell id="7IYAB5vf2lBV86GcsKY7-46" value="" style="endArrow=classic;html=1;rounded=0;exitX=0.6;exitY=0.75;exitDx=0;exitDy=0;exitPerimeter=0;" edge="1" parent="1">
          <mxGeometry width="50" height="50" relative="1" as="geometry">
            <mxPoint x="730" y="190.625" as="sourcePoint" />
            <mxPoint x="750" y="191" as="targetPoint" />
          </mxGeometry>
        </mxCell>
        <mxCell id="7IYAB5vf2lBV86GcsKY7-49" value="" style="rounded=0;whiteSpace=wrap;html=1;" vertex="1" parent="1">
          <mxGeometry x="880" y="133" width="60" height="147" as="geometry" />
        </mxCell>
        <mxCell id="7IYAB5vf2lBV86GcsKY7-50" value="DNOC空间" style="text;html=1;strokeColor=none;fillColor=none;align=center;verticalAlign=middle;whiteSpace=wrap;rounded=0;" vertex="1" parent="1">
          <mxGeometry x="875" y="275" width="70" height="30" as="geometry" />
        </mxCell>
        <mxCell id="7IYAB5vf2lBV86GcsKY7-54" value="GPA" style="text;html=1;strokeColor=none;fillColor=none;align=center;verticalAlign=middle;whiteSpace=wrap;rounded=0;" vertex="1" parent="1">
          <mxGeometry x="747" y="176.25" width="36" height="30" as="geometry" />
        </mxCell>
        <mxCell id="7IYAB5vf2lBV86GcsKY7-55" value="" style="curved=1;endArrow=classic;html=1;rounded=0;entryX=-0.007;entryY=0.906;entryDx=0;entryDy=0;entryPerimeter=0;exitX=1;exitY=0.5;exitDx=0;exitDy=0;" edge="1" parent="1" source="7IYAB5vf2lBV86GcsKY7-54" target="7IYAB5vf2lBV86GcsKY7-49">
          <mxGeometry width="50" height="50" relative="1" as="geometry">
            <mxPoint x="750" y="210" as="sourcePoint" />
            <mxPoint x="800" y="160" as="targetPoint" />
            <Array as="points">
              <mxPoint x="820" y="199" />
              <mxPoint x="820" y="230" />
              <mxPoint x="840" y="266" />
            </Array>
          </mxGeometry>
        </mxCell>
        <mxCell id="7IYAB5vf2lBV86GcsKY7-56" value="&lt;font style=&quot;font-size: 6px;&quot;&gt;减去HBM_GPA_START&lt;/font&gt;" style="edgeLabel;html=1;align=center;verticalAlign=middle;resizable=0;points=[];" vertex="1" connectable="0" parent="7IYAB5vf2lBV86GcsKY7-55">
          <mxGeometry x="-0.3369" y="-10" relative="1" as="geometry">
            <mxPoint y="11" as="offset" />
          </mxGeometry>
        </mxCell>
        <mxCell id="7IYAB5vf2lBV86GcsKY7-57" value="BAR0的偏移" style="rounded=0;whiteSpace=wrap;html=1;fillColor=#f8cecc;strokeColor=#b85450;fontSize=10;" vertex="1" parent="1">
          <mxGeometry x="880" y="267" width="60" height="13" as="geometry" />
        </mxCell>
        <mxCell id="7IYAB5vf2lBV86GcsKY7-58" value="&lt;font style=&quot;font-size: 8px;&quot;&gt;BAR0的偏移&lt;/font&gt;" style="rounded=0;whiteSpace=wrap;html=1;fillColor=#f8cecc;strokeColor=#b85450;fontSize=10;" vertex="1" parent="1">
          <mxGeometry x="680" y="190" width="50" height="18.25" as="geometry" />
        </mxCell>
      </root>
    </mxGraphModel>
  </diagram>
</mxfile>
